<svg width="328" height="48" viewBox="0 0 328 48" fill="none" xmlns="http://www.w3.org/2000/svg">
<path d="M94.5791 30.7815L98.7784 25.0596C99.1717 24.5237 99.9105 24.3655 100.489 24.6934L104.748 27.1082L111.604 17.8806M106.414 18.0424L112.147 17.2393L113.125 22.7269" stroke="black" stroke-width="1.5" stroke-linecap="round" stroke-linejoin="round"/>
<path d="M136.364 30L140.748 18.8H142.732L138.204 30H136.364ZM136.172 30L131.644 18.8H133.612L137.996 30H136.172ZM143.979 30L143.995 22H145.771L145.755 30H143.979ZM144.875 20.48C144.587 20.48 144.336 20.3787 144.123 20.176C143.92 19.9627 143.819 19.712 143.819 19.424C143.819 19.136 143.92 18.8907 144.123 18.688C144.336 18.4853 144.587 18.384 144.875 18.384C145.163 18.384 145.408 18.4853 145.611 18.688C145.824 18.8907 145.931 19.136 145.931 19.424C145.931 19.712 145.824 19.9627 145.611 20.176C145.408 20.3787 145.163 20.48 144.875 20.48ZM151.435 30.192C150.656 30.192 149.963 30.016 149.355 29.664C148.758 29.3013 148.283 28.8053 147.931 28.176C147.59 27.5467 147.419 26.8213 147.419 26C147.419 25.1787 147.595 24.4533 147.947 23.824C148.299 23.1947 148.779 22.704 149.387 22.352C150.006 21.9893 150.71 21.808 151.499 21.808C152.214 21.808 152.854 21.9947 153.419 22.368C153.995 22.7307 154.454 23.2587 154.795 23.952C155.136 24.6453 155.307 25.472 155.307 26.432H153.499C153.499 25.7387 153.414 25.168 153.243 24.72C153.083 24.272 152.848 23.9413 152.539 23.728C152.24 23.504 151.872 23.392 151.435 23.392C150.976 23.392 150.582 23.4933 150.251 23.696C149.92 23.8987 149.67 24.1973 149.499 24.592C149.328 24.976 149.243 25.4613 149.243 26.048C149.243 26.5707 149.344 27.0187 149.547 27.392C149.76 27.7653 150.043 28.0533 150.395 28.256C150.758 28.448 151.158 28.544 151.595 28.544C152.075 28.544 152.47 28.4373 152.779 28.224C153.088 28 153.328 27.7173 153.499 27.376L155.147 28.08C154.923 28.5067 154.635 28.88 154.283 29.2C153.942 29.52 153.531 29.7653 153.051 29.936C152.582 30.1067 152.043 30.192 151.435 30.192ZM148.603 26.432V25.008H154.363V26.432H148.603ZM163.791 30L166.463 22H168.271L165.551 30H163.791ZM158.431 30L161.039 22H162.623L160.047 30H158.431ZM158.271 30L155.551 22H157.359L159.967 30H158.271ZM163.775 30L161.215 22H162.799L165.407 30H163.775ZM181.385 30L177.017 18.8H178.873L183.353 30H181.385ZM172.441 30L176.905 18.8H178.777L174.409 30H172.441ZM174.537 27.248V25.6H181.241V27.248H174.537ZM184.476 30V22H186.156L186.268 23.472V30H184.476ZM189.9 30V25.904L191.692 25.424V30H189.9ZM189.9 25.904C189.9 25.264 189.826 24.7733 189.676 24.432C189.538 24.08 189.335 23.8347 189.068 23.696C188.812 23.5573 188.508 23.488 188.156 23.488C187.559 23.4773 187.095 23.6747 186.764 24.08C186.434 24.4853 186.268 25.0667 186.268 25.824H185.596C185.596 24.9813 185.719 24.2613 185.964 23.664C186.21 23.056 186.562 22.5973 187.02 22.288C187.479 21.968 188.023 21.808 188.652 21.808C189.623 21.808 190.37 22.1067 190.892 22.704C191.426 23.2907 191.692 24.1973 191.692 25.424L189.9 25.904ZM198.356 30L198.276 28.496V25.888C198.276 25.344 198.217 24.8907 198.1 24.528C197.982 24.1653 197.796 23.888 197.54 23.696C197.294 23.504 196.969 23.408 196.564 23.408C196.19 23.408 195.86 23.488 195.572 23.648C195.284 23.808 195.044 24.0533 194.852 24.384L193.22 23.808C193.401 23.456 193.636 23.1253 193.924 22.816C194.212 22.5067 194.574 22.2613 195.012 22.08C195.46 21.8987 195.988 21.808 196.596 21.808C197.374 21.808 198.02 21.952 198.532 22.24C199.054 22.528 199.444 22.9547 199.7 23.52C199.956 24.0853 200.084 24.784 200.084 25.616L200.036 30H198.356ZM196.084 30.192C195.124 30.192 194.377 29.9787 193.844 29.552C193.321 29.1253 193.06 28.5227 193.06 27.744C193.06 26.912 193.337 26.2773 193.892 25.84C194.457 25.4027 195.241 25.184 196.244 25.184H198.388V26.56H196.82C196.105 26.56 195.604 26.6613 195.316 26.864C195.028 27.056 194.884 27.3333 194.884 27.696C194.884 28.0053 195.006 28.2507 195.252 28.432C195.508 28.6027 195.86 28.688 196.308 28.688C196.702 28.688 197.044 28.5973 197.332 28.416C197.63 28.224 197.86 27.9787 198.02 27.68C198.19 27.3707 198.276 27.04 198.276 26.688H198.932C198.932 27.776 198.697 28.6347 198.228 29.264C197.769 29.8827 197.054 30.192 196.084 30.192ZM201.898 30V18.8H203.69V30H201.898ZM206.944 33.392C206.688 33.392 206.4 33.344 206.08 33.248C205.77 33.152 205.472 33.0293 205.184 32.88L205.856 31.424C206.058 31.52 206.245 31.5947 206.416 31.648C206.586 31.712 206.725 31.744 206.832 31.744C207.088 31.744 207.301 31.6747 207.472 31.536C207.653 31.408 207.797 31.216 207.904 30.96L208.848 28.752L211.552 22H213.503L209.792 30.848C209.568 31.36 209.338 31.808 209.104 32.192C208.88 32.576 208.597 32.8693 208.256 33.072C207.914 33.2853 207.477 33.392 206.944 33.392ZM208.368 30L204.784 22H206.736L209.52 28.736L210.096 30H208.368ZM217.754 30.192C216.911 30.192 216.266 29.984 215.818 29.568C215.381 29.1413 215.162 28.5333 215.162 27.744V19.504H216.938V27.408C216.938 27.7813 217.023 28.064 217.194 28.256C217.375 28.448 217.637 28.544 217.978 28.544C218.085 28.544 218.202 28.5227 218.33 28.48C218.458 28.4373 218.602 28.3573 218.762 28.24L219.418 29.6C219.141 29.792 218.863 29.936 218.586 30.032C218.309 30.1387 218.031 30.192 217.754 30.192ZM213.834 23.536V22H219.098V23.536H213.834ZM220.963 30L220.979 22H222.755L222.739 30H220.963ZM221.859 20.48C221.571 20.48 221.321 20.3787 221.107 20.176C220.905 19.9627 220.803 19.712 220.803 19.424C220.803 19.136 220.905 18.8907 221.107 18.688C221.321 18.4853 221.571 18.384 221.859 18.384C222.147 18.384 222.393 18.4853 222.595 18.688C222.809 18.8907 222.915 19.136 222.915 19.424C222.915 19.712 222.809 19.9627 222.595 20.176C222.393 20.3787 222.147 20.48 221.859 20.48ZM228.595 30.192C227.774 30.192 227.049 30.016 226.419 29.664C225.79 29.3013 225.294 28.8053 224.931 28.176C224.579 27.5467 224.403 26.8213 224.403 26C224.403 25.1787 224.579 24.4533 224.931 23.824C225.294 23.1947 225.785 22.704 226.403 22.352C227.033 21.9893 227.753 21.808 228.563 21.808C229.353 21.808 230.067 22 230.707 22.384C231.347 22.7573 231.822 23.296 232.131 24L230.467 24.64C230.297 24.288 230.035 24.0053 229.683 23.792C229.331 23.5787 228.931 23.472 228.483 23.472C228.046 23.472 227.657 23.584 227.315 23.808C226.974 24.0213 226.707 24.32 226.515 24.704C226.323 25.0773 226.227 25.5093 226.227 26C226.227 26.4907 226.323 26.928 226.515 27.312C226.718 27.6853 226.99 27.984 227.331 28.208C227.683 28.4213 228.078 28.528 228.515 28.528C228.963 28.528 229.363 28.416 229.715 28.192C230.067 27.9573 230.329 27.6427 230.499 27.248L232.163 27.888C231.854 28.6133 231.379 29.1787 230.739 29.584C230.11 29.9893 229.395 30.192 228.595 30.192ZM236.467 30.192C235.933 30.192 235.443 30.112 234.995 29.952C234.547 29.792 234.163 29.568 233.843 29.28C233.523 28.9813 233.277 28.6347 233.107 28.24L234.659 27.552C234.819 27.8507 235.053 28.1013 235.363 28.304C235.683 28.5067 236.035 28.608 236.419 28.608C236.835 28.608 237.165 28.5387 237.411 28.4C237.667 28.2507 237.795 28.048 237.795 27.792C237.795 27.5467 237.699 27.36 237.507 27.232C237.315 27.0933 237.043 26.9813 236.691 26.896L235.939 26.688C235.181 26.496 234.589 26.192 234.163 25.776C233.736 25.3493 233.523 24.864 233.523 24.32C233.523 23.52 233.779 22.9013 234.291 22.464C234.813 22.0267 235.56 21.808 236.531 21.808C237.021 21.808 237.469 21.8827 237.875 22.032C238.291 22.1707 238.648 22.3733 238.947 22.64C239.245 22.896 239.453 23.2 239.571 23.552L238.083 24.224C237.976 23.9573 237.773 23.7547 237.475 23.616C237.176 23.4667 236.845 23.392 236.483 23.392C236.12 23.392 235.837 23.472 235.635 23.632C235.432 23.7813 235.331 23.9947 235.331 24.272C235.331 24.432 235.421 24.5813 235.603 24.72C235.784 24.848 236.045 24.9547 236.387 25.04L237.331 25.264C237.853 25.392 238.28 25.5947 238.611 25.872C238.941 26.1387 239.187 26.4427 239.347 26.784C239.507 27.1147 239.587 27.4507 239.587 27.792C239.587 28.272 239.448 28.6933 239.171 29.056C238.904 29.4187 238.536 29.7013 238.067 29.904C237.597 30.096 237.064 30.192 236.467 30.192Z" fill="black"/>
<rect x="0.5" y="0.5" width="327" height="47" rx="7.5" stroke="#D8D8D8"/>
</svg>
