<svg width="328" height="48" viewBox="0 0 328 48" fill="none" xmlns="http://www.w3.org/2000/svg">
<path d="M106.115 26.9956L111.996 21.1153M108.596 18.6873L111.599 15.6841C113.178 14.1053 115.737 14.1053 117.316 15.6841C118.895 17.2628 118.895 19.8225 117.316 21.4013L114.977 23.7402M109.412 29.3052L106.401 32.316C104.823 33.8948 102.263 33.8948 100.684 32.316C99.1053 30.7373 99.1053 28.1776 100.684 26.5988L103.543 23.7402" stroke="black" stroke-width="1.5" stroke-linecap="round" stroke-linejoin="round"/>
<path d="M141.864 30L146.248 18.8H148.232L143.704 30H141.864ZM141.672 30L137.144 18.8H139.112L143.496 30H141.672ZM149.479 30L149.495 22H151.271L151.255 30H149.479ZM150.375 20.48C150.087 20.48 149.836 20.3787 149.623 20.176C149.42 19.9627 149.319 19.712 149.319 19.424C149.319 19.136 149.42 18.8907 149.623 18.688C149.836 18.4853 150.087 18.384 150.375 18.384C150.663 18.384 150.908 18.4853 151.111 18.688C151.324 18.8907 151.431 19.136 151.431 19.424C151.431 19.712 151.324 19.9627 151.111 20.176C150.908 20.3787 150.663 20.48 150.375 20.48ZM156.935 30.192C156.156 30.192 155.463 30.016 154.855 29.664C154.258 29.3013 153.783 28.8053 153.431 28.176C153.09 27.5467 152.919 26.8213 152.919 26C152.919 25.1787 153.095 24.4533 153.447 23.824C153.799 23.1947 154.279 22.704 154.887 22.352C155.506 21.9893 156.21 21.808 156.999 21.808C157.714 21.808 158.354 21.9947 158.919 22.368C159.495 22.7307 159.954 23.2587 160.295 23.952C160.636 24.6453 160.807 25.472 160.807 26.432H158.999C158.999 25.7387 158.914 25.168 158.743 24.72C158.583 24.272 158.348 23.9413 158.039 23.728C157.74 23.504 157.372 23.392 156.935 23.392C156.476 23.392 156.082 23.4933 155.751 23.696C155.42 23.8987 155.17 24.1973 154.999 24.592C154.828 24.976 154.743 25.4613 154.743 26.048C154.743 26.5707 154.844 27.0187 155.047 27.392C155.26 27.7653 155.543 28.0533 155.895 28.256C156.258 28.448 156.658 28.544 157.095 28.544C157.575 28.544 157.97 28.4373 158.279 28.224C158.588 28 158.828 27.7173 158.999 27.376L160.647 28.08C160.423 28.5067 160.135 28.88 159.783 29.2C159.442 29.52 159.031 29.7653 158.551 29.936C158.082 30.1067 157.543 30.192 156.935 30.192ZM154.103 26.432V25.008H159.863V26.432H154.103ZM169.291 30L171.963 22H173.771L171.051 30H169.291ZM163.931 30L166.539 22H168.123L165.547 30H163.931ZM163.771 30L161.051 22H162.859L165.467 30H163.771ZM169.275 30L166.715 22H168.299L170.907 30H169.275ZM183.637 30L183.557 28.496V25.888C183.557 25.344 183.498 24.8907 183.381 24.528C183.264 24.1653 183.077 23.888 182.821 23.696C182.576 23.504 182.25 23.408 181.845 23.408C181.472 23.408 181.141 23.488 180.853 23.648C180.565 23.808 180.325 24.0533 180.133 24.384L178.501 23.808C178.682 23.456 178.917 23.1253 179.205 22.816C179.493 22.5067 179.856 22.2613 180.293 22.08C180.741 21.8987 181.269 21.808 181.877 21.808C182.656 21.808 183.301 21.952 183.813 22.24C184.336 22.528 184.725 22.9547 184.981 23.52C185.237 24.0853 185.365 24.784 185.365 25.616L185.317 30H183.637ZM181.365 30.192C180.405 30.192 179.658 29.9787 179.125 29.552C178.602 29.1253 178.341 28.5227 178.341 27.744C178.341 26.912 178.618 26.2773 179.173 25.84C179.738 25.4027 180.522 25.184 181.525 25.184H183.669V26.56H182.101C181.386 26.56 180.885 26.6613 180.597 26.864C180.309 27.056 180.165 27.3333 180.165 27.696C180.165 28.0053 180.288 28.2507 180.533 28.432C180.789 28.6027 181.141 28.688 181.589 28.688C181.984 28.688 182.325 28.5973 182.613 28.416C182.912 28.224 183.141 27.9787 183.301 27.68C183.472 27.3707 183.557 27.04 183.557 26.688H184.213C184.213 27.776 183.978 28.6347 183.509 29.264C183.05 29.8827 182.336 30.192 181.365 30.192ZM187.18 30V18.8H188.972V30H187.18ZM190.961 30V18.8H192.753V30H190.961ZM198.937 30V18.8H200.793V30H198.937ZM200.233 30V28.304H205.865V30H200.233ZM207.198 30L207.214 22H208.99L208.974 30H207.198ZM208.094 20.48C207.806 20.48 207.555 20.3787 207.342 20.176C207.139 19.9627 207.038 19.712 207.038 19.424C207.038 19.136 207.139 18.8907 207.342 18.688C207.555 18.4853 207.806 18.384 208.094 18.384C208.382 18.384 208.627 18.4853 208.83 18.688C209.043 18.8907 209.15 19.136 209.15 19.424C209.15 19.712 209.043 19.9627 208.83 20.176C208.627 20.3787 208.382 20.48 208.094 20.48ZM211.086 30V22H212.766L212.878 23.472V30H211.086ZM216.51 30V25.904L218.302 25.424V30H216.51ZM216.51 25.904C216.51 25.264 216.435 24.7733 216.286 24.432C216.147 24.08 215.944 23.8347 215.678 23.696C215.422 23.5573 215.118 23.488 214.766 23.488C214.168 23.4773 213.704 23.6747 213.374 24.08C213.043 24.4853 212.878 25.0667 212.878 25.824H212.206C212.206 24.9813 212.328 24.2613 212.574 23.664C212.819 23.056 213.171 22.5973 213.63 22.288C214.088 21.968 214.632 21.808 215.262 21.808C216.232 21.808 216.979 22.1067 217.502 22.704C218.035 23.2907 218.302 24.1973 218.302 25.424L216.51 25.904ZM221.829 27.76L220.741 26.528L224.901 22H227.061L221.829 27.76ZM220.117 30V18.8H221.909V30H220.117ZM225.205 30L222.389 25.856L223.557 24.608L227.333 30H225.205ZM231.295 30.192C230.761 30.192 230.271 30.112 229.823 29.952C229.375 29.792 228.991 29.568 228.671 29.28C228.351 28.9813 228.105 28.6347 227.935 28.24L229.487 27.552C229.647 27.8507 229.881 28.1013 230.191 28.304C230.511 28.5067 230.863 28.608 231.247 28.608C231.663 28.608 231.993 28.5387 232.239 28.4C232.495 28.2507 232.623 28.048 232.623 27.792C232.623 27.5467 232.527 27.36 232.335 27.232C232.143 27.0933 231.871 26.9813 231.519 26.896L230.767 26.688C230.009 26.496 229.417 26.192 228.991 25.776C228.564 25.3493 228.351 24.864 228.351 24.32C228.351 23.52 228.607 22.9013 229.119 22.464C229.641 22.0267 230.388 21.808 231.359 21.808C231.849 21.808 232.297 21.8827 232.703 22.032C233.119 22.1707 233.476 22.3733 233.775 22.64C234.073 22.896 234.281 23.2 234.399 23.552L232.911 24.224C232.804 23.9573 232.601 23.7547 232.303 23.616C232.004 23.4667 231.673 23.392 231.311 23.392C230.948 23.392 230.665 23.472 230.463 23.632C230.26 23.7813 230.159 23.9947 230.159 24.272C230.159 24.432 230.249 24.5813 230.431 24.72C230.612 24.848 230.873 24.9547 231.215 25.04L232.159 25.264C232.681 25.392 233.108 25.5947 233.439 25.872C233.769 26.1387 234.015 26.4427 234.175 26.784C234.335 27.1147 234.415 27.4507 234.415 27.792C234.415 28.272 234.276 28.6933 233.999 29.056C233.732 29.4187 233.364 29.7013 232.895 29.904C232.425 30.096 231.892 30.192 231.295 30.192Z" fill="black"/>
<rect x="0.5" y="0.5" width="327" height="47" rx="7.5" stroke="#D8D8D8"/>
</svg>
