<svg width="328" height="64" viewBox="0 0 328 64" fill="none" xmlns="http://www.w3.org/2000/svg">
<rect width="328" height="64" rx="8" fill="#4AD15F" fill-opacity="0.12"/>
<path fill-rule="evenodd" clip-rule="evenodd" d="M32.5034 23.4875C31.3939 22.3776 30.0759 21.498 28.6252 20.8995C27.1745 20.301 25.6197 19.9953 24.0503 20.0001C17.4643 20.0001 12.1029 25.3347 12.1002 31.8929C12.0973 33.9812 12.6477 36.0329 13.6955 37.8393L12 44L18.3348 42.3463C20.0883 43.2962 22.0512 43.7934 24.0455 43.7927H24.0503C30.6359 43.7927 35.9967 38.4575 36 31.8998C36.004 30.3359 35.6969 28.7867 35.0966 27.3425C34.4963 25.8983 33.6148 24.5879 32.5034 23.4875ZM24.0503 41.7854H24.0461C22.2682 41.7859 20.5227 41.3101 18.9911 40.4075L18.6284 40.1932L14.8693 41.1747L15.8727 37.527L15.6364 37.152C14.6423 35.5782 14.1157 33.7544 14.1177 31.8929C14.1177 26.4431 18.5753 22.009 24.0541 22.009C26.6823 22.0043 29.2047 23.0437 31.0666 24.8987C32.9285 26.7536 33.9774 29.2722 33.9825 31.9004C33.9803 37.3507 29.5248 41.7854 24.0503 41.7854ZM29.498 34.3823C29.1996 34.2334 27.7302 33.5145 27.458 33.4154C27.1859 33.3163 26.985 33.2665 26.7862 33.5643C26.5875 33.8622 26.0148 34.5286 25.8407 34.7295C25.6666 34.9304 25.4925 34.9523 25.1941 34.8034C24.8957 34.6545 23.933 34.3411 22.7925 33.3286C21.9048 32.5406 21.3059 31.5677 21.1318 31.2704C20.9577 30.9731 21.113 30.8118 21.2625 30.664C21.3969 30.5306 21.5609 30.3168 21.7103 30.1432C21.8598 29.9697 21.9096 29.8454 22.0087 29.6472C22.1078 29.449 22.0586 29.2754 21.9841 29.127C21.9096 28.9786 21.3123 27.5156 21.0637 26.9204C20.8211 26.3408 20.5752 26.4195 20.392 26.4104C20.2178 26.4018 20.017 26.3997 19.8193 26.3997C19.6682 26.4036 19.5195 26.4387 19.3825 26.5026C19.2455 26.5666 19.1232 26.6581 19.0232 26.7715C18.7495 27.0693 17.978 27.7893 17.978 29.2507C17.978 30.7122 19.0495 32.1265 19.1973 32.3247C19.3452 32.5229 21.3027 35.5245 24.2978 36.8118C24.854 37.05 25.4223 37.2588 26.0003 37.4375C26.7155 37.6636 27.3664 37.632 27.8807 37.5554C28.4544 37.4702 29.6485 36.8364 29.8966 36.1422C30.1446 35.4479 30.1451 34.8532 30.0707 34.7295C29.9962 34.6057 29.7969 34.5307 29.498 34.3823Z" fill="#4AD15F"/>
<path d="M51.648 38V27.728H53.504V38H51.648ZM48.208 28.496V26.8H56.944V28.496H48.208ZM61.965 38L61.885 36.496V33.888C61.885 33.344 61.8263 32.8907 61.709 32.528C61.5917 32.1653 61.405 31.888 61.149 31.696C60.9037 31.504 60.5783 31.408 60.173 31.408C59.7997 31.408 59.469 31.488 59.181 31.648C58.893 31.808 58.653 32.0533 58.461 32.384L56.829 31.808C57.0103 31.456 57.245 31.1253 57.533 30.816C57.821 30.5067 58.1837 30.2613 58.621 30.08C59.069 29.8987 59.597 29.808 60.205 29.808C60.9837 29.808 61.629 29.952 62.141 30.24C62.6637 30.528 63.053 30.9547 63.309 31.52C63.565 32.0853 63.693 32.784 63.693 33.616L63.645 38H61.965ZM59.693 38.192C58.733 38.192 57.9863 37.9787 57.453 37.552C56.9303 37.1253 56.669 36.5227 56.669 35.744C56.669 34.912 56.9463 34.2773 57.501 33.84C58.0663 33.4027 58.8503 33.184 59.853 33.184H61.997V34.56H60.429C59.7143 34.56 59.213 34.6613 58.925 34.864C58.637 35.056 58.493 35.3333 58.493 35.696C58.493 36.0053 58.6157 36.2507 58.861 36.432C59.117 36.6027 59.469 36.688 59.917 36.688C60.3117 36.688 60.653 36.5973 60.941 36.416C61.2397 36.224 61.469 35.9787 61.629 35.68C61.7997 35.3707 61.885 35.04 61.885 34.688H62.541C62.541 35.776 62.3063 36.6347 61.837 37.264C61.3783 37.8827 60.6637 38.192 59.693 38.192ZM65.5076 38V26.8H67.2996V38H65.5076ZM71.0009 35.76L69.9129 34.528L74.0729 30H76.2329L71.0009 35.76ZM69.2889 38V26.8H71.0809V38H69.2889ZM74.3769 38L71.5609 33.856L72.7289 32.608L76.5049 38H74.3769ZM88.8219 38L91.4939 30H93.3019L90.5819 38H88.8219ZM83.4619 38L86.0699 30H87.6539L85.0779 38H83.4619ZM83.3019 38L80.5819 30H82.3899L84.9979 38H83.3019ZM88.8059 38L86.2459 30H87.8299L90.4379 38H88.8059ZM94.5728 38L94.5888 30H96.3648L96.3488 38H94.5728ZM95.4688 28.48C95.1808 28.48 94.9301 28.3787 94.7168 28.176C94.5141 27.9627 94.4128 27.712 94.4128 27.424C94.4128 27.136 94.5141 26.8907 94.7168 26.688C94.9301 26.4853 95.1808 26.384 95.4688 26.384C95.7568 26.384 96.0021 26.4853 96.2048 26.688C96.4181 26.8907 96.5248 27.136 96.5248 27.424C96.5248 27.712 96.4181 27.9627 96.2048 28.176C96.0021 28.3787 95.7568 28.48 95.4688 28.48ZM101.645 38.192C100.802 38.192 100.157 37.984 99.7088 37.568C99.2714 37.1413 99.0528 36.5333 99.0528 35.744V27.504H100.829V35.408C100.829 35.7813 100.914 36.064 101.085 36.256C101.266 36.448 101.527 36.544 101.869 36.544C101.975 36.544 102.093 36.5227 102.221 36.48C102.349 36.4373 102.493 36.3573 102.653 36.24L103.309 37.6C103.031 37.792 102.754 37.936 102.477 38.032C102.199 38.1387 101.922 38.192 101.645 38.192ZM97.7248 31.536V30H102.989V31.536H97.7248ZM104.758 38L104.742 26.656H106.534L106.55 38H104.758ZM110.182 38V33.904L111.974 33.424V38H110.182ZM110.182 33.904C110.182 33.264 110.107 32.7733 109.958 32.432C109.809 32.08 109.601 31.8347 109.334 31.696C109.078 31.5573 108.779 31.488 108.438 31.488C107.83 31.4773 107.361 31.6747 107.03 32.08C106.71 32.4853 106.55 33.0667 106.55 33.824H105.862C105.862 32.9813 105.985 32.2613 106.23 31.664C106.486 31.056 106.843 30.5973 107.302 30.288C107.761 29.968 108.305 29.808 108.934 29.808C109.894 29.808 110.641 30.1067 111.174 30.704C111.707 31.2907 111.974 32.1973 111.974 33.424L110.182 33.904ZM123.008 38L122.912 36.528V30H124.688V38H123.008ZM117.472 34.576V30H119.264V34.096L117.472 34.576ZM119.264 34.096C119.264 34.7253 119.339 35.216 119.488 35.568C119.638 35.92 119.84 36.1653 120.096 36.304C120.363 36.4427 120.667 36.512 121.008 36.512C121.616 36.5227 122.086 36.3253 122.416 35.92C122.747 35.5147 122.912 34.9333 122.912 34.176H123.584C123.584 35.0187 123.456 35.744 123.2 36.352C122.955 36.9493 122.603 37.408 122.144 37.728C121.696 38.0373 121.158 38.192 120.528 38.192C119.558 38.192 118.806 37.8933 118.272 37.296C117.739 36.6987 117.472 35.792 117.472 34.576L119.264 34.096ZM129.592 38.192C129.058 38.192 128.568 38.112 128.12 37.952C127.672 37.792 127.288 37.568 126.968 37.28C126.648 36.9813 126.402 36.6347 126.232 36.24L127.784 35.552C127.944 35.8507 128.178 36.1013 128.488 36.304C128.808 36.5067 129.16 36.608 129.544 36.608C129.96 36.608 130.29 36.5387 130.536 36.4C130.792 36.2507 130.92 36.048 130.92 35.792C130.92 35.5467 130.824 35.36 130.632 35.232C130.44 35.0933 130.168 34.9813 129.816 34.896L129.064 34.688C128.306 34.496 127.714 34.192 127.288 33.776C126.861 33.3493 126.648 32.864 126.648 32.32C126.648 31.52 126.904 30.9013 127.416 30.464C127.938 30.0267 128.685 29.808 129.656 29.808C130.146 29.808 130.594 29.8827 131 30.032C131.416 30.1707 131.773 30.3733 132.072 30.64C132.37 30.896 132.578 31.2 132.696 31.552L131.208 32.224C131.101 31.9573 130.898 31.7547 130.6 31.616C130.301 31.4667 129.97 31.392 129.608 31.392C129.245 31.392 128.962 31.472 128.76 31.632C128.557 31.7813 128.456 31.9947 128.456 32.272C128.456 32.432 128.546 32.5813 128.728 32.72C128.909 32.848 129.17 32.9547 129.512 33.04L130.456 33.264C130.978 33.392 131.405 33.5947 131.736 33.872C132.066 34.1387 132.312 34.4427 132.472 34.784C132.632 35.1147 132.712 35.4507 132.712 35.792C132.712 36.272 132.573 36.6933 132.296 37.056C132.029 37.4187 131.661 37.7013 131.192 37.904C130.722 38.096 130.189 38.192 129.592 38.192Z" fill="black"/>
<rect x="0.5" y="0.5" width="327" height="63" rx="7.5" stroke="#4AD15F" stroke-opacity="0.32"/>
</svg>
