<svg width="328" height="65" viewBox="0 0 328 65" fill="none" xmlns="http://www.w3.org/2000/svg">
<rect width="328" height="65" rx="8" fill="#E8F1FF"/>
<path d="M20.3077 29.2417C20.3077 27.2389 21.9608 25.6154 24 25.6154C26.0392 25.6154 27.6923 27.2389 27.6923 29.2417C27.6923 30.2394 27.2821 31.143 26.6183 31.7987C25.4783 32.9246 24 34.167 24 35.7692M24 39.4615V39.9231M36 33C36 39.6274 30.6274 45 24 45C17.3726 45 12 39.6274 12 33C12 26.3726 17.3726 21 24 21C30.6274 21 36 26.3726 36 33Z" stroke="#0E6FFF" stroke-width="1.5" stroke-linecap="round"/>
<path d="M49.328 39V27.8H51.184V39H49.328ZM50.864 34.328V32.632H55.552V34.328H50.864ZM50.864 29.496V27.8H56.288V29.496H50.864ZM58.8166 34.744C58.8166 33.88 58.982 33.1707 59.3126 32.616C59.6433 32.0613 60.07 31.6507 60.5926 31.384C61.126 31.1067 61.6806 30.968 62.2566 30.968V32.68C61.766 32.68 61.302 32.7493 60.8646 32.888C60.438 33.016 60.0913 33.2293 59.8246 33.528C59.558 33.8267 59.4246 34.2213 59.4246 34.712L58.8166 34.744ZM57.6326 39V31H59.4246V39H57.6326ZM67.0131 39.192C66.2345 39.192 65.5411 39.016 64.9331 38.664C64.3358 38.3013 63.8611 37.8053 63.5091 37.176C63.1678 36.5467 62.9971 35.8213 62.9971 35C62.9971 34.1787 63.1731 33.4533 63.5251 32.824C63.8771 32.1947 64.3571 31.704 64.9651 31.352C65.5838 30.9893 66.2878 30.808 67.0771 30.808C67.7918 30.808 68.4318 30.9947 68.9971 31.368C69.5731 31.7307 70.0318 32.2587 70.3731 32.952C70.7145 33.6453 70.8851 34.472 70.8851 35.432H69.0771C69.0771 34.7387 68.9918 34.168 68.8211 33.72C68.6611 33.272 68.4265 32.9413 68.1171 32.728C67.8185 32.504 67.4505 32.392 67.0131 32.392C66.5545 32.392 66.1598 32.4933 65.8291 32.696C65.4985 32.8987 65.2478 33.1973 65.0771 33.592C64.9065 33.976 64.8211 34.4613 64.8211 35.048C64.8211 35.5707 64.9225 36.0187 65.1251 36.392C65.3385 36.7653 65.6211 37.0533 65.9731 37.256C66.3358 37.448 66.7358 37.544 67.1731 37.544C67.6531 37.544 68.0478 37.4373 68.3571 37.224C68.6665 37 68.9065 36.7173 69.0771 36.376L70.7251 37.08C70.5011 37.5067 70.2131 37.88 69.8611 38.2C69.5198 38.52 69.1091 38.7653 68.6291 38.936C68.1598 39.1067 67.6211 39.192 67.0131 39.192ZM64.1811 35.432V34.008H69.9411V35.432H64.1811ZM77.9536 42.2V32.488L78.0496 31H79.7456V42.2H77.9536ZM75.4256 39.192C74.7003 39.192 74.0656 39.0213 73.5216 38.68C72.9883 38.328 72.567 37.8373 72.2576 37.208C71.959 36.5787 71.8096 35.8427 71.8096 35C71.8096 34.1467 71.959 33.4107 72.2576 32.792C72.567 32.1627 72.9883 31.6773 73.5216 31.336C74.0656 30.984 74.7003 30.808 75.4256 30.808C76.0976 30.808 76.6736 30.984 77.1536 31.336C77.6443 31.6773 78.0176 32.1627 78.2736 32.792C78.5296 33.4107 78.6576 34.1467 78.6576 35C78.6576 35.8427 78.5296 36.5787 78.2736 37.208C78.0176 37.8373 77.6443 38.328 77.1536 38.68C76.6736 39.0213 76.0976 39.192 75.4256 39.192ZM75.8736 37.56C76.279 37.56 76.6363 37.4533 76.9456 37.24C77.2656 37.016 77.511 36.712 77.6816 36.328C77.863 35.944 77.9536 35.5013 77.9536 35C77.9536 34.4987 77.863 34.056 77.6816 33.672C77.511 33.288 77.2656 32.9893 76.9456 32.776C76.6363 32.5627 76.2736 32.456 75.8576 32.456C75.431 32.456 75.0523 32.5627 74.7216 32.776C74.391 32.9893 74.1296 33.288 73.9376 33.672C73.7563 34.056 73.6603 34.4987 73.6496 35C73.6603 35.5013 73.7563 35.944 73.9376 36.328C74.1296 36.712 74.391 37.016 74.7216 37.24C75.063 37.4533 75.447 37.56 75.8736 37.56ZM86.9926 39L86.8966 37.528V31H88.6726V39H86.9926ZM81.4566 35.576V31H83.2486V35.096L81.4566 35.576ZM83.2486 35.096C83.2486 35.7253 83.3233 36.216 83.4726 36.568C83.622 36.92 83.8246 37.1653 84.0806 37.304C84.3473 37.4427 84.6513 37.512 84.9926 37.512C85.6006 37.5227 86.07 37.3253 86.4006 36.92C86.7313 36.5147 86.8966 35.9333 86.8966 35.176H87.5686C87.5686 36.0187 87.4406 36.744 87.1846 37.352C86.9393 37.9493 86.5873 38.408 86.1286 38.728C85.6806 39.0373 85.142 39.192 84.5126 39.192C83.542 39.192 82.79 38.8933 82.2566 38.296C81.7233 37.6987 81.4566 36.792 81.4566 35.576L83.2486 35.096ZM94.2319 39.192C93.4532 39.192 92.7599 39.016 92.1519 38.664C91.5545 38.3013 91.0799 37.8053 90.7279 37.176C90.3865 36.5467 90.2159 35.8213 90.2159 35C90.2159 34.1787 90.3919 33.4533 90.7439 32.824C91.0959 32.1947 91.5759 31.704 92.1839 31.352C92.8025 30.9893 93.5065 30.808 94.2959 30.808C95.0105 30.808 95.6505 30.9947 96.2159 31.368C96.7919 31.7307 97.2505 32.2587 97.5919 32.952C97.9332 33.6453 98.1039 34.472 98.1039 35.432H96.2959C96.2959 34.7387 96.2105 34.168 96.0399 33.72C95.8799 33.272 95.6452 32.9413 95.3359 32.728C95.0372 32.504 94.6692 32.392 94.2319 32.392C93.7732 32.392 93.3785 32.4933 93.0479 32.696C92.7172 32.8987 92.4665 33.1973 92.2959 33.592C92.1252 33.976 92.0399 34.4613 92.0399 35.048C92.0399 35.5707 92.1412 36.0187 92.3439 36.392C92.5572 36.7653 92.8399 37.0533 93.1919 37.256C93.5545 37.448 93.9545 37.544 94.3919 37.544C94.8719 37.544 95.2665 37.4373 95.5759 37.224C95.8852 37 96.1252 36.7173 96.2959 36.376L97.9439 37.08C97.7199 37.5067 97.4319 37.88 97.0799 38.2C96.7385 38.52 96.3279 38.7653 95.8479 38.936C95.3785 39.1067 94.8399 39.192 94.2319 39.192ZM91.3999 35.432V34.008H97.1599V35.432H91.3999ZM99.4764 39V31H101.156L101.268 32.472V39H99.4764ZM104.9 39V34.904L106.692 34.424V39H104.9ZM104.9 34.904C104.9 34.264 104.826 33.7733 104.676 33.432C104.538 33.08 104.335 32.8347 104.068 32.696C103.812 32.5573 103.508 32.488 103.156 32.488C102.559 32.4773 102.095 32.6747 101.764 33.08C101.434 33.4853 101.268 34.0667 101.268 34.824H100.596C100.596 33.9813 100.719 33.2613 100.964 32.664C101.21 32.056 101.562 31.5973 102.02 31.288C102.479 30.968 103.023 30.808 103.652 30.808C104.623 30.808 105.37 31.1067 105.892 31.704C106.426 32.2907 106.692 33.1973 106.692 34.424L104.9 34.904ZM111.692 39.192C110.849 39.192 110.204 38.984 109.756 38.568C109.318 38.1413 109.1 37.5333 109.1 36.744V28.504H110.876V36.408C110.876 36.7813 110.961 37.064 111.132 37.256C111.313 37.448 111.574 37.544 111.916 37.544C112.022 37.544 112.14 37.5227 112.268 37.48C112.396 37.4373 112.54 37.3573 112.7 37.24L113.356 38.6C113.078 38.792 112.801 38.936 112.524 39.032C112.246 39.1387 111.969 39.192 111.692 39.192ZM107.772 32.536V31H113.036V32.536H107.772ZM114.789 39V27.8H116.581V39H114.789ZM119.834 42.392C119.578 42.392 119.29 42.344 118.97 42.248C118.661 42.152 118.362 42.0293 118.074 41.88L118.746 40.424C118.949 40.52 119.135 40.5947 119.306 40.648C119.477 40.712 119.615 40.744 119.722 40.744C119.978 40.744 120.191 40.6747 120.362 40.536C120.543 40.408 120.687 40.216 120.794 39.96L121.738 37.752L124.442 31H126.394L122.682 39.848C122.458 40.36 122.229 40.808 121.994 41.192C121.77 41.576 121.487 41.8693 121.146 42.072C120.805 42.2853 120.367 42.392 119.834 42.392ZM121.258 39L117.674 31H119.626L122.41 37.736L122.986 39H121.258ZM139.416 39L135.048 27.8H136.904L141.384 39H139.416ZM130.472 39L134.936 27.8H136.808L132.44 39H130.472ZM132.568 36.248V34.6H139.272V36.248H132.568ZM145.42 39.192C144.886 39.192 144.396 39.112 143.948 38.952C143.5 38.792 143.116 38.568 142.796 38.28C142.476 37.9813 142.23 37.6347 142.06 37.24L143.612 36.552C143.772 36.8507 144.006 37.1013 144.316 37.304C144.636 37.5067 144.988 37.608 145.372 37.608C145.788 37.608 146.118 37.5387 146.364 37.4C146.62 37.2507 146.748 37.048 146.748 36.792C146.748 36.5467 146.652 36.36 146.46 36.232C146.268 36.0933 145.996 35.9813 145.644 35.896L144.892 35.688C144.134 35.496 143.542 35.192 143.116 34.776C142.689 34.3493 142.476 33.864 142.476 33.32C142.476 32.52 142.732 31.9013 143.244 31.464C143.766 31.0267 144.513 30.808 145.484 30.808C145.974 30.808 146.422 30.8827 146.828 31.032C147.244 31.1707 147.601 31.3733 147.9 31.64C148.198 31.896 148.406 32.2 148.524 32.552L147.036 33.224C146.929 32.9573 146.726 32.7547 146.428 32.616C146.129 32.4667 145.798 32.392 145.436 32.392C145.073 32.392 144.79 32.472 144.588 32.632C144.385 32.7813 144.284 32.9947 144.284 33.272C144.284 33.432 144.374 33.5813 144.556 33.72C144.737 33.848 144.998 33.9547 145.34 34.04L146.284 34.264C146.806 34.392 147.233 34.5947 147.564 34.872C147.894 35.1387 148.14 35.4427 148.3 35.784C148.46 36.1147 148.54 36.4507 148.54 36.792C148.54 37.272 148.401 37.6933 148.124 38.056C147.857 38.4187 147.489 38.7013 147.02 38.904C146.55 39.096 146.017 39.192 145.42 39.192ZM151.673 36.76L150.585 35.528L154.745 31H156.905L151.673 36.76ZM149.961 39V27.8H151.753V39H149.961ZM155.049 39L152.233 34.856L153.401 33.608L157.177 39H155.049ZM161.482 39.192C160.703 39.192 160.01 39.016 159.402 38.664C158.805 38.3013 158.33 37.8053 157.978 37.176C157.637 36.5467 157.466 35.8213 157.466 35C157.466 34.1787 157.642 33.4533 157.994 32.824C158.346 32.1947 158.826 31.704 159.434 31.352C160.053 30.9893 160.757 30.808 161.546 30.808C162.261 30.808 162.901 30.9947 163.466 31.368C164.042 31.7307 164.501 32.2587 164.842 32.952C165.183 33.6453 165.354 34.472 165.354 35.432H163.546C163.546 34.7387 163.461 34.168 163.29 33.72C163.13 33.272 162.895 32.9413 162.586 32.728C162.287 32.504 161.919 32.392 161.482 32.392C161.023 32.392 160.629 32.4933 160.298 32.696C159.967 32.8987 159.717 33.1973 159.546 33.592C159.375 33.976 159.29 34.4613 159.29 35.048C159.29 35.5707 159.391 36.0187 159.594 36.392C159.807 36.7653 160.09 37.0533 160.442 37.256C160.805 37.448 161.205 37.544 161.642 37.544C162.122 37.544 162.517 37.4373 162.826 37.224C163.135 37 163.375 36.7173 163.546 36.376L165.194 37.08C164.97 37.5067 164.682 37.88 164.33 38.2C163.989 38.52 163.578 38.7653 163.098 38.936C162.629 39.1067 162.09 39.192 161.482 39.192ZM158.65 35.432V34.008H164.41V35.432H158.65ZM172.502 39L172.422 37.512V27.8H174.198V39H172.502ZM169.894 39.192C169.169 39.192 168.534 39.0213 167.99 38.68C167.457 38.328 167.036 37.8373 166.726 37.208C166.428 36.5787 166.278 35.8427 166.278 35C166.278 34.1467 166.428 33.4107 166.726 32.792C167.036 32.1627 167.457 31.6773 167.99 31.336C168.534 30.984 169.169 30.808 169.894 30.808C170.566 30.808 171.142 30.984 171.622 31.336C172.113 31.6773 172.486 32.1627 172.742 32.792C172.998 33.4107 173.126 34.1467 173.126 35C173.126 35.8427 172.998 36.5787 172.742 37.208C172.486 37.8373 172.113 38.328 171.622 38.68C171.142 39.0213 170.566 39.192 169.894 39.192ZM170.342 37.56C170.748 37.56 171.105 37.4533 171.414 37.24C171.734 37.016 171.98 36.712 172.15 36.328C172.332 35.944 172.422 35.5013 172.422 35C172.422 34.4987 172.332 34.056 172.15 33.672C171.98 33.288 171.734 32.9893 171.414 32.776C171.105 32.5627 170.742 32.456 170.326 32.456C169.9 32.456 169.521 32.5627 169.19 32.776C168.86 32.9893 168.598 33.288 168.406 33.672C168.225 34.056 168.129 34.4987 168.118 35C168.129 35.5013 168.225 35.944 168.406 36.328C168.598 36.712 168.86 37.016 169.19 37.24C169.532 37.4533 169.916 37.56 170.342 37.56ZM185.351 39.192C184.242 39.192 183.26 38.9467 182.407 38.456C181.554 37.9653 180.882 37.2827 180.391 36.408C179.911 35.5333 179.671 34.5307 179.671 33.4C179.671 32.5467 179.81 31.768 180.087 31.064C180.364 30.36 180.754 29.752 181.255 29.24C181.756 28.7173 182.348 28.3173 183.031 28.04C183.724 27.752 184.482 27.608 185.303 27.608C186.412 27.608 187.388 27.8587 188.231 28.36C189.084 28.8507 189.746 29.5333 190.215 30.408C190.695 31.272 190.935 32.2693 190.935 33.4C190.935 34.5307 190.695 35.5333 190.215 36.408C189.746 37.2827 189.09 37.9653 188.247 38.456C187.415 38.9467 186.45 39.192 185.351 39.192ZM189.703 39.656L185.623 35.528L186.823 34.376L190.871 38.488L189.703 39.656ZM185.351 37.496C186.076 37.496 186.716 37.32 187.271 36.968C187.826 36.616 188.258 36.136 188.567 35.528C188.887 34.9093 189.047 34.2 189.047 33.4C189.047 32.6 188.887 31.896 188.567 31.288C188.247 30.6693 187.804 30.184 187.239 29.832C186.684 29.48 186.039 29.304 185.303 29.304C184.578 29.304 183.932 29.48 183.367 29.832C182.812 30.184 182.37 30.6693 182.039 31.288C181.719 31.896 181.559 32.6 181.559 33.4C181.559 34.2 181.719 34.9093 182.039 35.528C182.37 36.136 182.818 36.616 183.383 36.968C183.959 37.32 184.615 37.496 185.351 37.496ZM197.961 39L197.865 37.528V31H199.641V39H197.961ZM192.425 35.576V31H194.217V35.096L192.425 35.576ZM194.217 35.096C194.217 35.7253 194.292 36.216 194.441 36.568C194.591 36.92 194.793 37.1653 195.049 37.304C195.316 37.4427 195.62 37.512 195.961 37.512C196.569 37.5227 197.039 37.3253 197.369 36.92C197.7 36.5147 197.865 35.9333 197.865 35.176H198.537C198.537 36.0187 198.409 36.744 198.153 37.352C197.908 37.9493 197.556 38.408 197.097 38.728C196.649 39.0373 196.111 39.192 195.481 39.192C194.511 39.192 193.759 38.8933 193.225 38.296C192.692 37.6987 192.425 36.792 192.425 35.576L194.217 35.096ZM205.201 39.192C204.422 39.192 203.729 39.016 203.121 38.664C202.523 38.3013 202.049 37.8053 201.697 37.176C201.355 36.5467 201.185 35.8213 201.185 35C201.185 34.1787 201.361 33.4533 201.713 32.824C202.065 32.1947 202.545 31.704 203.153 31.352C203.771 30.9893 204.475 30.808 205.265 30.808C205.979 30.808 206.619 30.9947 207.185 31.368C207.761 31.7307 208.219 32.2587 208.561 32.952C208.902 33.6453 209.073 34.472 209.073 35.432H207.265C207.265 34.7387 207.179 34.168 207.009 33.72C206.849 33.272 206.614 32.9413 206.305 32.728C206.006 32.504 205.638 32.392 205.201 32.392C204.742 32.392 204.347 32.4933 204.017 32.696C203.686 32.8987 203.435 33.1973 203.265 33.592C203.094 33.976 203.009 34.4613 203.009 35.048C203.009 35.5707 203.11 36.0187 203.313 36.392C203.526 36.7653 203.809 37.0533 204.161 37.256C204.523 37.448 204.923 37.544 205.361 37.544C205.841 37.544 206.235 37.4373 206.545 37.224C206.854 37 207.094 36.7173 207.265 36.376L208.913 37.08C208.689 37.5067 208.401 37.88 208.049 38.2C207.707 38.52 207.297 38.7653 206.817 38.936C206.347 39.1067 205.809 39.192 205.201 39.192ZM202.369 35.432V34.008H208.129V35.432H202.369ZM213.357 39.192C212.824 39.192 212.333 39.112 211.885 38.952C211.437 38.792 211.053 38.568 210.733 38.28C210.413 37.9813 210.168 37.6347 209.997 37.24L211.549 36.552C211.709 36.8507 211.944 37.1013 212.253 37.304C212.573 37.5067 212.925 37.608 213.309 37.608C213.725 37.608 214.056 37.5387 214.301 37.4C214.557 37.2507 214.685 37.048 214.685 36.792C214.685 36.5467 214.589 36.36 214.397 36.232C214.205 36.0933 213.933 35.9813 213.581 35.896L212.829 35.688C212.072 35.496 211.48 35.192 211.053 34.776C210.626 34.3493 210.413 33.864 210.413 33.32C210.413 32.52 210.669 31.9013 211.181 31.464C211.704 31.0267 212.45 30.808 213.421 30.808C213.912 30.808 214.36 30.8827 214.765 31.032C215.181 31.1707 215.538 31.3733 215.837 31.64C216.136 31.896 216.344 32.2 216.461 32.552L214.973 33.224C214.866 32.9573 214.664 32.7547 214.365 32.616C214.066 32.4667 213.736 32.392 213.373 32.392C213.01 32.392 212.728 32.472 212.525 32.632C212.322 32.7813 212.221 32.9947 212.221 33.272C212.221 33.432 212.312 33.5813 212.493 33.72C212.674 33.848 212.936 33.9547 213.277 34.04L214.221 34.264C214.744 34.392 215.17 34.5947 215.501 34.872C215.832 35.1387 216.077 35.4427 216.237 35.784C216.397 36.1147 216.477 36.4507 216.477 36.792C216.477 37.272 216.338 37.6933 216.061 38.056C215.794 38.4187 215.426 38.7013 214.957 38.904C214.488 39.096 213.954 39.192 213.357 39.192ZM221.082 39.192C220.24 39.192 219.594 38.984 219.146 38.568C218.709 38.1413 218.49 37.5333 218.49 36.744V28.504H220.266V36.408C220.266 36.7813 220.352 37.064 220.522 37.256C220.704 37.448 220.965 37.544 221.306 37.544C221.413 37.544 221.53 37.5227 221.658 37.48C221.786 37.4373 221.93 37.3573 222.09 37.24L222.746 38.6C222.469 38.792 222.192 38.936 221.914 39.032C221.637 39.1387 221.36 39.192 221.082 39.192ZM217.162 32.536V31H222.426V32.536H217.162ZM224.292 39L224.308 31H226.084L226.068 39H224.292ZM225.188 29.48C224.9 29.48 224.649 29.3787 224.436 29.176C224.233 28.9627 224.132 28.712 224.132 28.424C224.132 28.136 224.233 27.8907 224.436 27.688C224.649 27.4853 224.9 27.384 225.188 27.384C225.476 27.384 225.721 27.4853 225.924 27.688C226.137 27.8907 226.244 28.136 226.244 28.424C226.244 28.712 226.137 28.9627 225.924 29.176C225.721 29.3787 225.476 29.48 225.188 29.48ZM231.86 39.192C231.06 39.192 230.345 39.016 229.716 38.664C229.097 38.3013 228.612 37.8053 228.26 37.176C227.908 36.5467 227.732 35.8213 227.732 35C227.732 34.1787 227.902 33.4533 228.243 32.824C228.596 32.1947 229.081 31.704 229.7 31.352C230.318 30.9893 231.028 30.808 231.828 30.808C232.628 30.808 233.337 30.9893 233.956 31.352C234.574 31.704 235.054 32.1947 235.396 32.824C235.748 33.4533 235.924 34.1787 235.924 35C235.924 35.8213 235.753 36.5467 235.411 37.176C235.07 37.8053 234.59 38.3013 233.972 38.664C233.353 39.016 232.649 39.192 231.86 39.192ZM231.86 37.544C232.297 37.544 232.686 37.4373 233.028 37.224C233.369 37 233.636 36.7013 233.828 36.328C234.02 35.944 234.116 35.5013 234.116 35C234.116 34.4987 234.014 34.0613 233.812 33.688C233.62 33.304 233.353 33.0053 233.012 32.792C232.67 32.568 232.276 32.456 231.828 32.456C231.38 32.456 230.985 32.5627 230.644 32.776C230.302 32.9893 230.036 33.288 229.844 33.672C229.652 34.056 229.556 34.4987 229.556 35C229.556 35.5013 229.652 35.944 229.844 36.328C230.046 36.7013 230.318 37 230.66 37.224C231.012 37.4373 231.412 37.544 231.86 37.544ZM237.476 39V31H239.156L239.268 32.472V39H237.476ZM242.9 39V34.904L244.692 34.424V39H242.9ZM242.9 34.904C242.9 34.264 242.826 33.7733 242.676 33.432C242.538 33.08 242.335 32.8347 242.068 32.696C241.812 32.5573 241.508 32.488 241.156 32.488C240.559 32.4773 240.095 32.6747 239.764 33.08C239.434 33.4853 239.268 34.0667 239.268 34.824H238.596C238.596 33.9813 238.719 33.2613 238.964 32.664C239.21 32.056 239.562 31.5973 240.02 31.288C240.479 30.968 241.023 30.808 241.652 30.808C242.623 30.808 243.37 31.1067 243.892 31.704C244.426 32.2907 244.692 33.1973 244.692 34.424L242.9 34.904ZM249.42 39.192C248.886 39.192 248.396 39.112 247.948 38.952C247.5 38.792 247.116 38.568 246.796 38.28C246.476 37.9813 246.23 37.6347 246.06 37.24L247.612 36.552C247.772 36.8507 248.006 37.1013 248.316 37.304C248.636 37.5067 248.988 37.608 249.372 37.608C249.788 37.608 250.118 37.5387 250.364 37.4C250.62 37.2507 250.748 37.048 250.748 36.792C250.748 36.5467 250.652 36.36 250.46 36.232C250.268 36.0933 249.996 35.9813 249.644 35.896L248.892 35.688C248.134 35.496 247.542 35.192 247.116 34.776C246.689 34.3493 246.476 33.864 246.476 33.32C246.476 32.52 246.732 31.9013 247.244 31.464C247.766 31.0267 248.513 30.808 249.484 30.808C249.974 30.808 250.422 30.8827 250.828 31.032C251.244 31.1707 251.601 31.3733 251.9 31.64C252.198 31.896 252.406 32.2 252.524 32.552L251.036 33.224C250.929 32.9573 250.726 32.7547 250.428 32.616C250.129 32.4667 249.798 32.392 249.436 32.392C249.073 32.392 248.79 32.472 248.588 32.632C248.385 32.7813 248.284 32.9947 248.284 33.272C248.284 33.432 248.374 33.5813 248.556 33.72C248.737 33.848 248.998 33.9547 249.34 34.04L250.284 34.264C250.806 34.392 251.233 34.5947 251.564 34.872C251.894 35.1387 252.14 35.4427 252.3 35.784C252.46 36.1147 252.54 36.4507 252.54 36.792C252.54 37.272 252.401 37.6933 252.124 38.056C251.857 38.4187 251.489 38.7013 251.02 38.904C250.55 39.096 250.017 39.192 249.42 39.192Z" fill="black"/>
<rect x="0.5" y="0.5" width="327" height="64" rx="7.5" stroke="#0E6FFF" stroke-opacity="0.32"/>
</svg>
