<svg width="1024" height="1024" viewBox="0 0 1024 1024" fill="none" xmlns="http://www.w3.org/2000/svg">
<rect width="1024" height="1024" fill="white"/>
<path d="M942 255.561C942 241.123 941.038 226.684 940.076 213.208C936.231 176.631 929.5 141.979 917.961 108.289C884.308 98.6631 848.731 92.8877 812.193 90.9626C805.462 90.9626 798.731 90 791.999 90C668.922 90 557.385 139.091 475.654 218.984C442.961 211.283 410.27 207.433 375.653 207.433C282.384 207.433 195.846 235.347 123.731 283.475C93.9231 303.69 66.0384 326.791 42 352.78C49.6924 388.396 61.2308 422.085 76.6155 453.85C132.385 569.357 235.27 656.952 360.27 693.529C399.692 809.037 483.347 903.369 592 955.348C622.77 970.748 656.423 982.299 691.038 990C716.039 965.936 739.116 938.021 758.346 908.181C803.539 836.951 830.461 753.208 830.461 662.728C830.461 629.037 826.616 596.31 819.885 565.508C895.846 484.652 942 374.92 942 255.561ZM336.231 546.257C336.231 560.694 337.193 575.133 338.155 588.609C248.731 548.182 178.539 474.063 143.923 380.695C206.424 329.68 287.193 297.914 374.693 297.914C386.231 297.914 396.808 298.876 408.346 299.84C363.153 371.07 336.231 455.775 336.231 546.257ZM434.307 616.523C429.5 593.421 427.576 570.321 427.576 546.257C427.576 461.551 456.422 384.545 504.5 322.942C603.538 360.481 681.424 439.411 717 538.556C654.499 589.572 573.73 621.336 486.23 621.336C468.924 619.412 451.615 618.449 434.307 616.523ZM662.192 887.005C576.615 854.278 507.384 791.711 466.038 710.856C472.769 710.856 479.499 711.817 486.23 711.817C579.501 711.817 666.039 683.903 738.154 635.775C739.116 645.4 739.116 654.065 739.116 663.69C739.116 747.433 711.232 824.438 662.192 887.005ZM574.692 253.636C635.269 208.396 710.27 181.444 791.999 181.444C810.269 181.444 827.578 182.406 843.922 185.294C848.731 208.396 850.653 231.497 850.653 255.561C850.653 333.528 826.616 405.722 784.307 464.438C740.078 372.995 666.039 297.914 574.692 253.636Z" fill="#0E6FFF"/>
<path d="M397.193 499.261C397.193 499.261 396.983 497.187 394.722 495.062C392.461 492.936 390.357 492.781 390.357 492.781C375.685 490.085 378.157 511.963 378.157 511.963C378.157 511.963 400.401 513.622 397.193 499.261ZM382.89 507.09C382.89 507.09 382.522 496.824 389.358 497.55C389.358 497.55 390.357 497.55 391.356 498.484C392.355 499.417 392.355 500.402 392.355 500.402C393.302 507.09 382.89 507.09 382.89 507.09Z" fill="#0E6FFF"/>
</svg>
